<svg xmlns="http://www.w3.org/2000/svg" viewBox="0 0 64 64"><g id="_03-cook" data-name="03-cook"><path d="M4.3,1.87a1.007,1.007,0,0,1,1.49-.08L7,3l.42.38L3.52,8.52,1.63,6.63A1,1,0,0,1,1.56,5.3Z" style="fill:#fff"/><path d="M3.52,8.52l3.9-5.14,8.09,7.19L9.94,18.64a1.118,1.118,0,0,1-1.53.11L1.37,12.92a.987.987,0,0,1-.1-1.45Z" style="fill:#ffcf4f"/><polygon points="19 9.21 15.74 10.24 15.51 10.57 7.42 3.38 9.23 1 11.84 3.19 19 9.21" style="fill:#e7aa2f"/><path d="M16,3A10,10,0,0,1,26,13v1.5A3.517,3.517,0,0,1,22.5,18,3.5,3.5,0,0,1,19,14.5V9.21L11.84,3.19,12,3Z" style="fill:#a3c7b9"/><path d="M62.73,1.754a1.7,1.7,0,0,1-.42,2.289L54,11c-.19,1.659-1.81,3.4-3.87,4.709-2.8,1.769-5.86,1.709-6.83-.13s.51-4.779,3.32-6.549C48.55,7.8,50,8,52,8l8.46-6.7a1.581,1.581,0,0,1,2.27.44Z" style="fill:#e8e4dc"/><path d="M46.652,15.932a8.5,8.5,0,0,0,3.653-1.551c2.45-1.78,3.4-4.289,2.131-5.6a3.1,3.1,0,0,0-2.359-.765A6.187,6.187,0,0,0,46.89,9.032c-2.477,1.56-3.918,4.028-3.561,5.851a1.915,1.915,0,0,0,.235.343A3.526,3.526,0,0,0,46.652,15.932Z" style="fill:#cdc3b4"/><path d="M23.5,16A2.5,2.5,0,0,1,21,13.5V8.92A2,2,0,0,0,20.3,7.4L15.167,3H12l-.16.19L19,9.21V14.5A3.5,3.5,0,0,0,22.5,18,3.517,3.517,0,0,0,26,14.5v-1A2.5,2.5,0,0,1,23.5,16Z" style="fill:#65adaf"/><path d="M18.058,4.178a1,1,0,0,0,.609,1.277q.261.093.514.2A1,1,0,0,0,20,3.839c-.028-.013-.055-.028-.083-.04s-.073-.028-.11-.044c-.173-.071-.352-.132-.53-.194A1,1,0,0,0,18.058,4.178Z" style="fill:#d7dbbe"/><path d="M20.878,5.369a1,1,0,0,0,.148,1.406,7.945,7.945,0,0,1,2.925,5.334,1,1,0,0,0,.992.891,1.065,1.065,0,0,0,.112-.006,1,1,0,0,0,.882-1.087c-.021-.2-.056-.393-.089-.588-.02-.119-.033-.24-.058-.358a9.976,9.976,0,0,0-2.69-5c-.011-.012-.021-.024-.033-.036-.158-.157-.327-.3-.494-.449-.081-.07-.156-.145-.239-.213-.026-.021-.055-.04-.082-.061A1,1,0,0,0,20.878,5.369Z" style="fill:#d7dbbe"/><path d="M11.394,7.859a3.783,3.783,0,0,1,.122,4.368L9.981,14.112a5.977,5.977,0,0,1-4.512,2.2L8.41,18.75a1.118,1.118,0,0,0,1.53-.11l5.57-8.07L10.82,6.4A2.979,2.979,0,0,0,11.394,7.859Z" style="fill:#e7aa2f"/><path d="M12.084,3.4l-.632.79A2.994,2.994,0,0,0,10.82,6.4l4.69,4.168.23-.33L19,9.21Z" style="fill:#e7942f"/><rect x="1" y="60" width="62" height="3" style="fill:#da684e"/><rect x="9" y="27" width="46" height="4" style="fill:#da684e"/><path d="M9,35v4H7.24a2,2,0,0,1-1.79-1.11L4,35Z" style="fill:#423e35"/><path d="M60,35l-1.45,2.89A2,2,0,0,1,56.76,39H55V35Z" style="fill:#423e35"/><path d="M9,31v4H2a1,1,0,0,1-1-1V32a1,1,0,0,1,1-1Z" style="fill:#a0968c"/><path d="M63,32v2a1,1,0,0,1-1,1H55V31h7A1,1,0,0,1,63,32Z" style="fill:#a0968c"/><path d="M55,53a4,4,0,0,1-3.52,3.97A3.994,3.994,0,0,0,52,55c0-2.21-1-6-2-6s-6,4.79-6,7a3.129,3.129,0,0,0,.14.96L44,57H35.46A3.989,3.989,0,0,0,36,55c0-2.21-3-6-4-6s-4,3.79-4,6a3.989,3.989,0,0,0,.54,2H20l-.14-.04A3.129,3.129,0,0,0,20,56c0-2.21-5-7-6-7s-2,3.79-2,6a3.994,3.994,0,0,0,.52,1.97A4,4,0,0,1,9,53V31H55V53Z" style="fill:#e8e4dc"/><path d="M3,60H3a2,2,0,0,0,2,2H59a2,2,0,0,0,2-2h2v3H1V60Z" style="fill:#85392b"/><path d="M62,33H58a1,1,0,0,1-1-1V31H55v4h7a1,1,0,0,0,1-1V32A1,1,0,0,1,62,33Z" style="fill:#80786a"/><path d="M55,35v4h1V38a2,2,0,0,1,2-2h1.5l.5-1Z" style="fill:#292721"/><path d="M2,33H6a1,1,0,0,0,1-1V31H9v4H2a1,1,0,0,1-1-1V32A1,1,0,0,0,2,33Z" style="fill:#80786a"/><path d="M9,35v4H8V38a2,2,0,0,0-2-2H4.5L4,35Z" style="fill:#292721"/><path d="M9,27h3a2,2,0,0,0,2,2H50a2,2,0,0,0,2-2h3v4H9Z" style="fill:#bd4c3d"/><path d="M38,55c-.677,0-1.346-.035-2.008-.095,0,.031.008.065.008.095a3.989,3.989,0,0,1-.54,2H44l.14-.04A3.129,3.129,0,0,1,44,56a2.692,2.692,0,0,1,.247-1Z" style="fill:#d6cec1"/><path d="M53,55H52a3.994,3.994,0,0,1-.52,1.97A4,4,0,0,0,55,53,2,2,0,0,1,53,55Z" style="fill:#d6cec1"/><path d="M16,31H9V53a4,4,0,0,0,3.52,3.97A3.994,3.994,0,0,1,12,55c0-2.21,1-6,2-6s6,4.79,6,7a3.129,3.129,0,0,1-.14.96L20,57h8.54A3.989,3.989,0,0,1,28,55a5.172,5.172,0,0,1,.6-2.107A22.091,22.091,0,0,1,18.236,42.669,6.011,6.011,0,0,1,23.619,34H55V31Z" style="fill:#d6cec1"/><path d="M51.48,56.97A4.007,4.007,0,0,1,48,59c-1.85,0-3.41-.56-3.86-2.04A3.129,3.129,0,0,1,44,56c0-2.21,5-7,6-7s2,3.79,2,6A3.994,3.994,0,0,1,51.48,56.97Z" style="fill:#4c8db0"/><path d="M35.46,57A4,4,0,0,1,28,55c0-2.21,3-6,4-6s4,3.79,4,6A3.989,3.989,0,0,1,35.46,57Z" style="fill:#4c8db0"/><path d="M12.52,56.97A3.994,3.994,0,0,1,12,55c0-2.21,1-6,2-6s6,4.79,6,7a3.129,3.129,0,0,1-.14.96C19.41,58.44,17.85,59,16,59A4.007,4.007,0,0,1,12.52,56.97Z" style="fill:#4c8db0"/><rect x="14" y="27" width="30" height="2" rx="1" ry="1" style="fill:#ea735c"/><rect x="45" y="27" width="5" height="2" rx="1" ry="1" style="fill:#ea735c"/><path d="M53,40a2,2,0,0,0-2,2v8.154a12.058,12.058,0,0,1,.714,2.366A1.99,1.99,0,0,0,55,51V42A2,2,0,0,0,53,40Z" style="fill:#f7f3eb"/><rect x="51" y="34" width="4" height="5" rx="2" ry="2" style="fill:#f7f3eb"/><path d="M34.163,57.8a2.549,2.549,0,0,1-4.326,0,2.325,2.325,0,0,1-.337-1.2c0-1.326,1.875-3.6,2.5-3.6s2.5,2.274,2.5,3.6A2.325,2.325,0,0,1,34.163,57.8Z" style="fill:#65adaf"/><path d="M50.153,57.8a2.54,2.54,0,0,1-4.316,0,2.325,2.325,0,0,1-.337-1.2c0-1.326,3.867-3.6,4.491-3.6s.5,2.274.5,3.6A2.325,2.325,0,0,1,50.153,57.8Z" style="fill:#65adaf"/><path d="M13.847,57.8a2.54,2.54,0,0,0,4.316,0,2.325,2.325,0,0,0,.337-1.2c0-1.326-3.867-3.6-4.491-3.6s-.5,2.274-.5,3.6A2.325,2.325,0,0,0,13.847,57.8Z" style="fill:#65adaf"/><path d="M63,59H60v2h2v1H2V61H4V59H1a1,1,0,0,0-1,1v3a1,1,0,0,0,1,1H63a1,1,0,0,0,1-1V60A1,1,0,0,0,63,59Z"/><path d="M62,30H58v2h4v2H56V27a1,1,0,0,0-1-1H9a1,1,0,0,0-1,1v7H2V32H6V30H2a2,2,0,0,0-2,2v2a2,2,0,0,0,2,2H3.382l1.171,2.342A2.983,2.983,0,0,0,7.236,40H8V53a5,5,0,0,0,3.924,4.876A5,5,0,0,0,13.031,59H6v2H58V59H50.969a5,5,0,0,0,1.107-1.124A5,5,0,0,0,56,53V40h.764a2.983,2.983,0,0,0,2.683-1.658L60.618,36H62a2,2,0,0,0,2-2V32A2,2,0,0,0,62,30ZM7.236,38a.994.994,0,0,1-.894-.553L5.618,36H8v2ZM13,55a12.114,12.114,0,0,1,1.131-4.886C15.471,50.91,19,54.6,19,56c0,.495,0,2-3,2A3,3,0,0,1,13,55Zm7.466,3h7.56a5.012,5.012,0,0,0,1,1H19.579A3.433,3.433,0,0,0,20.466,58ZM32,58a3,3,0,0,1-3-3c0-1.609,2.151-4.411,3-4.948.849.537,3,3.339,3,4.948A3,3,0,0,1,32,58Zm2.969,1a5.012,5.012,0,0,0,1-1h7.56a3.433,3.433,0,0,0,.887,1ZM48,58c-3,0-3-1.505-3-2,0-1.4,3.529-5.09,4.869-5.886A12.114,12.114,0,0,1,51,55,3,3,0,0,1,48,58Zm6-5a2.982,2.982,0,0,1-1.024,2.24c0-.081.024-.158.024-.24,0-.918-.559-7-3-7-1.653,0-7,5.29-7,8H36.9a5,5,0,0,0,.1-1c0-2.486-3.224-7-5-7s-5,4.514-5,7a5,5,0,0,0,.1,1H21c0-2.71-5.347-8-7-8-2.441,0-3,6.082-3,7,0,.082.02.159.024.24A2.982,2.982,0,0,1,10,53V32h2V30H10V28H54v2H18v2H54V53Zm3.658-15.553a.994.994,0,0,1-.894.553H56V36h2.382Z"/><rect x="14" y="30" width="2" height="2"/><path d="M0,12.273a2.016,2.016,0,0,0,.729,1.42l7.036,5.824a2.138,2.138,0,0,0,2.917-.2.939.939,0,0,0,.082-.1l5.6-8.117L18,10.578V12h2V9h-.032a.993.993,0,0,0-.324-.551L14.353,4H16a9.011,9.011,0,0,1,9,9v1.5a2.5,2.5,0,0,1-5,0V14H18v.5a4.5,4.5,0,0,0,9,0V13A11.013,11.013,0,0,0,16,2H12v.022L9.875.234A1,1,0,0,0,8.435.4L7.3,1.887l-.8-.8A1.966,1.966,0,0,0,4.972.5a2,2,0,0,0-1.451.748L.778,4.677A2,2,0,0,0,.926,7.34L2.193,8.607.505,10.828A1.971,1.971,0,0,0,0,12.273ZM2.34,5.926,5.083,2.5l1,1L3.414,7Zm-.27,6.147,5.5-7.231,1.022.909L9.918,4.256,8.78,3.246l.612-.805,7.571,6.367-1.419.448-4.5-4-1.329,1.5,4.48,3.982L9.182,17.986a.137.137,0,0,1-.139-.01L2,12.153A1.013,1.013,0,0,0,2.07,12.073Z"/><path d="M44.748,17.829a5.346,5.346,0,0,0,1.37.171,8.744,8.744,0,0,0,4.55-1.449c2.352-1.488,3.877-3.3,4.256-5.021L62.9,4.848A2.694,2.694,0,0,0,63.567,1.2,2.577,2.577,0,0,0,59.84.518l-4.672,3.7L56.41,5.784l4.637-3.672a.567.567,0,0,1,.442-.1.609.609,0,0,1,.4.279.722.722,0,0,1-.219.982l-8.312,6.962a1,1,0,0,0-.352.656c-.134,1.205-1.44,2.727-3.407,3.971A5.908,5.908,0,0,1,45.264,15.9a1.621,1.621,0,0,1-1.082-.782c-.628-1.193.437-3.637,2.968-5.239a6.422,6.422,0,0,1,4.116-.881L52,9a1,1,0,0,0,.621-.216l2-1.583L53.38,5.632,51.656,7l-.365,0a8.358,8.358,0,0,0-5.21,1.191c-3.284,2.078-4.9,5.531-3.668,7.861A3.586,3.586,0,0,0,44.748,17.829Z"/><rect x="41" y="19" width="2" height="2"/><rect x="44" y="19" width="2" height="2"/><rect x="47" y="19" width="2" height="2"/><rect x="41" y="23" width="2" height="2"/><rect x="44" y="23" width="2" height="2"/><rect x="47" y="23" width="2" height="2"/></g></svg>