<?xml version="1.0" encoding="UTF-8"?>
<!DOCTYPE svg PUBLIC "-//W3C//DTD SVG 1.1//EN" "http://www.w3.org/Graphics/SVG/1.1/DTD/svg11.dtd">
<!-- Creator: CorelDRAW -->
<svg xmlns="http://www.w3.org/2000/svg" xml:space="preserve" width="6.82666in" height="6.82666in" style="shape-rendering:geometricPrecision; text-rendering:geometricPrecision; image-rendering:optimizeQuality; fill-rule:evenodd; clip-rule:evenodd"
viewBox="0 0 6.82666 6.82666"
 xmlns:xlink="http://www.w3.org/1999/xlink">
 <defs>
  <style type="text/css">
   <![CDATA[
    .fil2 {fill:none}
    .fil1 {fill:#00897B}
    .fil5 {fill:#1565C0}
    .fil12 {fill:#263238}
    .fil0 {fill:#4DB6AC}
    .fil3 {fill:#689F38}
    .fil13 {fill:#8F1010}
    .fil8 {fill:#A13F0F}
    .fil9 {fill:#AD4916}
    .fil16 {fill:#B71C1C}
    .fil6 {fill:#D9AE9A}
    .fil4 {fill:#E3B8A4}
    .fil17 {fill:#E4B7A0}
    .fil7 {fill:#EDC5B2}
    .fil14 {fill:#F08888}
    .fil11 {fill:#37474F;fill-rule:nonzero}
    .fil10 {fill:#424242;fill-rule:nonzero}
    .fil15 {fill:#B71C1C;fill-rule:nonzero}
   ]]>
  </style>
   <clipPath id="id0">
    <path d="M3.41333 0c1.88513,0 3.41333,1.5282 3.41333,3.41333 0,1.88513 -1.5282,3.41333 -3.41333,3.41333 -1.88513,0 -3.41333,-1.5282 -3.41333,-3.41333 0,-1.88513 1.5282,-3.41333 3.41333,-3.41333z"/>
   </clipPath>
 </defs>
 <g id="Layer_x0020_1">
  <metadata id="CorelCorpID_0Corel-Layer"/>
  <path class="fil0" d="M3.41333 0c1.88513,0 3.41333,1.5282 3.41333,3.41333 0,1.88513 -1.5282,3.41333 -3.41333,3.41333 -1.88513,0 -3.41333,-1.5282 -3.41333,-3.41333 0,-1.88513 1.5282,-3.41333 3.41333,-3.41333z"/>
  <g style="clip-path:url(#id0)">
   <g id="_435562264">
    <g>
     <polygon id="_4376471761" class="fil1" points="5.26881,5.27961 9.05508,9.06588 9.05509,9.06593 9.0551,9.06598 9.05511,9.06603 9.05513,9.06607 9.05513,9.06613 9.05515,9.06617 9.05515,9.06622 9.05517,9.06627 5.2689,5.28 5.26889,5.27995 5.26888,5.2799 5.26887,5.27985 5.26886,5.2798 5.26885,5.27976 5.26883,5.2797 5.26883,5.27966 "/>
     <polygon id="_437646696" class="fil1" points="4.08827,3.82823 7.87454,7.6145 7.87454,7.71251 4.08827,3.92624 "/>
     <polygon id="_437648688" class="fil1" points="5.25415,5.20901 9.04042,8.99528 9.04129,8.99954 9.04217,9.0038 9.04304,9.00805 9.04392,9.0123 9.0448,9.01654 9.04567,9.02078 9.04655,9.02501 9.04743,9.02924 9.0483,9.03347 9.04918,9.03769 9.05006,9.0419 9.05094,9.04611 9.05181,9.05031 9.0527,9.05452 9.05357,9.0587 9.05445,9.06289 5.26819,5.27662 5.26731,5.27243 5.26643,5.26824 5.26555,5.26404 5.26467,5.25984 5.26379,5.25563 5.26291,5.25141 5.26204,5.2472 5.26116,5.24297 5.26028,5.23874 5.25941,5.23451 5.25853,5.23027 5.25765,5.22602 5.25678,5.22178 5.2559,5.21753 5.25502,5.21327 "/>
     <polygon id="_437648616" class="fil1" points="5.26819,5.27662 9.05445,9.06289 9.0545,9.06313 9.05455,9.06337 9.0546,9.0636 9.05465,9.06384 9.0547,9.06407 9.05475,9.06431 9.0548,9.06454 9.05485,9.06478 5.26858,5.27851 5.26854,5.27827 5.26848,5.27804 5.26844,5.2778 5.26839,5.27757 5.26833,5.27733 5.26828,5.27709 5.26824,5.27686 "/>
     <polygon id="_437648736" class="fil1" points="4.0129,1.59394 7.79917,5.38022 7.79963,5.38147 7.7985,5.3836 7.79587,5.38653 7.79187,5.3902 7.78663,5.39455 7.78024,5.39951 7.77284,5.40502 7.76454,5.411 7.75546,5.41739 7.74572,5.42414 7.73542,5.43117 7.7247,5.43843 7.71367,5.44583 7.70244,5.45333 7.69114,5.46084 7.67988,5.46832 7.66878,5.47569 7.65795,5.48289 7.64752,5.48985 7.63759,5.49652 7.6283,5.50281 7.61976,5.50867 7.61208,5.51404 7.60539,5.51884 7.59979,5.52302 7.59541,5.5265 7.59236,5.52923 7.59077,5.53113 7.59075,5.53215 3.80448,1.74588 3.8045,1.74486 3.80609,1.74296 3.80914,1.74023 3.81352,1.73675 3.81912,1.73257 3.82581,1.72777 3.83349,1.7224 3.84204,1.71654 3.85133,1.71024 3.86125,1.70358 3.87168,1.69662 3.88251,1.68942 3.89361,1.68205 3.90487,1.67457 3.91617,1.66706 3.9274,1.65956 3.93843,1.65215 3.94915,1.6449 3.95945,1.63787 3.96919,1.63112 3.97828,1.62472 3.98657,1.61874 3.99397,1.61324 4.00036,1.60828 4.00561,1.60393 4.0096,1.60026 4.01223,1.59733 4.01337,1.5952 "/>
     <polygon id="_437648160" class="fil1" points="3.67515,1.65424 7.46141,5.44051 7.46156,5.44166 7.46077,5.44356 7.45915,5.44613 7.45677,5.44933 7.45372,5.45308 7.45009,5.45732 7.44597,5.462 7.44143,5.46706 7.43656,5.47242 7.43145,5.47803 7.42618,5.48382 7.42084,5.48974 7.41551,5.49573 7.41028,5.50172 7.40524,5.50765 7.40046,5.51346 7.39604,5.51909 7.39206,5.52447 7.38859,5.52955 7.38574,5.53426 7.38359,5.53854 7.38221,5.54233 7.3817,5.54557 7.38214,5.5482 7.38361,5.55015 3.59734,1.76388 3.59587,1.76193 3.59543,1.7593 3.59594,1.75606 3.59732,1.75227 3.59948,1.74799 3.60233,1.74328 3.60579,1.7382 3.60977,1.73281 3.61419,1.72719 3.61897,1.72138 3.62402,1.71545 3.62924,1.70946 3.63457,1.70347 3.63991,1.69755 3.64518,1.69176 3.65029,1.68615 3.65516,1.68078 3.6597,1.67573 3.66383,1.67105 3.66746,1.66681 3.6705,1.66306 3.67288,1.65986 3.6745,1.65729 3.67529,1.65539 "/>
     <polygon id="_437648112" class="fil1" points="4.53987,3.16472 8.32613,6.95099 8.32278,6.95233 8.31942,6.95354 8.31607,6.9546 8.31272,6.95552 8.30938,6.9563 8.30605,6.95693 8.30272,6.9574 8.29942,6.95773 8.29612,6.95791 8.29284,6.95793 8.28959,6.95779 8.28635,6.9575 8.28313,6.95704 8.27994,6.95643 8.27678,6.95565 8.27365,6.9547 4.48738,3.16843 4.49051,3.16938 4.49367,3.17015 4.49687,3.17077 4.50008,3.17122 4.50332,3.17152 4.50657,3.17165 4.50985,3.17163 4.51315,3.17146 4.51646,3.17113 4.51978,3.17065 4.52311,3.17002 4.52645,3.16925 4.5298,3.16833 4.53315,3.16727 4.53651,3.16606 "/>
     <polygon id="_437648040" class="fil1" points="3.37302,1.73802 7.15929,5.52429 7.15985,5.52589 7.15941,5.52808 7.15805,5.53082 7.15586,5.53405 7.15293,5.53772 7.14933,5.54178 7.14516,5.54617 7.14049,5.55084 7.13541,5.55574 7.13001,5.56082 7.12436,5.56603 7.11856,5.57131 7.11268,5.57661 7.10681,5.58189 7.10103,5.58708 7.09543,5.59213 7.09009,5.597 7.0851,5.60163 7.08054,5.60596 7.07649,5.60995 7.07304,5.61355 7.07028,5.61669 7.06827,5.61934 7.06712,5.62143 7.0669,5.62292 3.28063,1.83665 3.28085,1.83516 3.282,1.83307 3.28401,1.83042 3.28678,1.82728 3.29022,1.82368 3.29427,1.81969 3.29883,1.81535 3.30383,1.81073 3.30916,1.80586 3.31476,1.80081 3.32054,1.79562 3.32641,1.79034 3.33229,1.78504 3.33809,1.77976 3.34374,1.77455 3.34915,1.76947 3.35422,1.76457 3.35889,1.75989 3.36307,1.7555 3.36666,1.75145 3.36959,1.74778 3.37178,1.74455 3.37314,1.74181 3.37358,1.73962 "/>
     <polygon id="_437648400" class="fil1" points="4.48738,3.16843 8.27365,6.9547 8.27174,6.95404 8.26986,6.95333 8.26802,6.95255 8.2662,6.95172 8.26441,6.95083 8.26264,6.94989 8.26091,6.9489 8.2592,6.94785 4.47294,3.16158 4.47464,3.16263 4.47637,3.16362 4.47814,3.16456 4.47993,3.16545 4.48175,3.16628 4.48359,3.16706 4.48547,3.16777 "/>
     <polygon id="_437648136" class="fil1" points="4.47294,3.16158 8.2592,6.94785 8.25642,6.96058 8.25359,6.97308 8.25072,6.98536 8.24782,6.99741 8.2449,7.00922 8.24195,7.02079 8.23899,7.03209 8.23602,7.04315 8.23304,7.05393 8.23006,7.06443 8.22708,7.07466 8.22412,7.08459 8.22117,7.09424 8.21823,7.10357 8.21533,7.1126 8.21245,7.12131 8.2096,7.12969 8.2068,7.13774 8.20404,7.14545 8.20133,7.15282 8.19868,7.15983 8.19609,7.16648 8.19356,7.17277 8.1911,7.17868 8.18872,7.18421 8.18642,7.18935 8.1842,7.19409 8.18207,7.19843 8.18005,7.20235 8.17812,7.20587 8.1763,7.20895 8.17458,7.21161 4.38831,3.42533 4.39003,3.42268 4.39185,3.41959 4.39378,3.41608 4.39581,3.41215 4.39793,3.40781 4.40015,3.40307 4.40245,3.39794 4.40483,3.39241 4.40729,3.3865 4.40982,3.38021 4.41241,3.37356 4.41507,3.36655 4.41777,3.35918 4.42053,3.35147 4.42333,3.34342 4.42618,3.33504 4.42906,3.32633 4.43196,3.3173 4.4349,3.30796 4.43785,3.29832 4.44081,3.28839 4.44379,3.27816 4.44677,3.26766 4.44975,3.25687 4.45272,3.24582 4.45569,3.23452 4.45863,3.22295 4.46156,3.21114 4.46445,3.19909 4.46732,3.18681 4.47015,3.17431 "/>
     <polygon id="_437648472" class="fil1" points="4.38831,3.42533 8.17458,7.21161 8.17044,7.21751 8.16583,7.22371 8.16075,7.2302 8.15523,7.23697 8.14928,7.244 8.14291,7.25127 8.13613,7.25878 8.12896,7.26651 8.12142,7.27444 8.11351,7.28257 8.10524,7.29088 8.09664,7.29935 8.08772,7.30797 8.07848,7.31673 8.06895,7.32562 8.05913,7.33461 8.04905,7.3437 8.0387,7.35287 8.02812,7.36212 8.0173,7.37141 8.00627,7.38075 7.99504,7.39012 7.98361,7.3995 7.97202,7.40888 7.96025,7.41825 7.94835,7.42759 7.9363,7.43689 7.92414,7.44613 7.91187,7.4553 7.8995,7.4644 7.88705,7.4734 7.87454,7.48228 4.08827,3.69601 4.10078,3.68713 4.11323,3.67813 4.1256,3.66903 4.13787,3.65986 4.15004,3.65061 4.16208,3.64131 4.17398,3.63198 4.18575,3.62261 4.19735,3.61323 4.20877,3.60385 4.22,3.59448 4.23104,3.58514 4.24185,3.57585 4.25244,3.5666 4.26278,3.55743 4.27287,3.54834 4.28268,3.53935 4.29221,3.53046 4.30145,3.5217 4.31037,3.51308 4.31898,3.50461 4.32724,3.4963 4.33515,3.48817 4.3427,3.48024 4.34987,3.47251 4.35664,3.465 4.36301,3.45772 4.36896,3.4507 4.37448,3.44393 4.37956,3.43744 4.38417,3.43124 "/>
     <polygon id="_437648544" class="fil1" points="4.08827,3.69601 7.87454,7.48228 7.87454,7.6145 4.08827,3.82823 "/>
     <polygon id="_437649408" class="fil1" points="5.25385,5.20755 9.04011,8.99382 9.0387,8.98696 9.03725,8.97997 9.03578,8.97286 9.03429,8.96564 9.03278,8.95833 9.03126,8.95095 9.02972,8.94352 9.02819,8.93605 9.02664,8.92857 9.0251,8.92108 9.02356,8.91361 9.02203,8.90618 9.0205,8.8988 9.019,8.89148 9.01751,8.88426 9.01604,8.87714 9.0146,8.87014 9.01319,8.86328 9.01181,8.85657 9.01046,8.85004 9.00916,8.8437 9.0079,8.83757 9.00669,8.83167 9.00552,8.82601 9.00441,8.82061 9.00336,8.81549 9.00237,8.81067 9.00144,8.80615 9.00059,8.80198 8.9998,8.79814 8.99909,8.79468 8.99846,8.79159 5.21219,5.00532 5.21282,5.00841 5.21353,5.01187 5.21432,5.0157 5.21518,5.01988 5.2161,5.02439 5.21709,5.02922 5.21815,5.03434 5.21926,5.03974 5.22042,5.0454 5.22163,5.0513 5.22289,5.05743 5.2242,5.06377 5.22554,5.0703 5.22692,5.077 5.22833,5.08387 5.22978,5.09087 5.23124,5.09799 5.23273,5.10521 5.23424,5.11253 5.23576,5.11991 5.23729,5.12734 5.23883,5.13481 5.24037,5.1423 5.24192,5.14978 5.24346,5.15725 5.24499,5.16468 5.24652,5.17206 5.24802,5.17937 5.24952,5.18659 5.25098,5.1937 5.25243,5.20069 "/>
     <polygon id="_437648952" class="fil1" points="4.33365,4.03417 8.11991,7.82044 8.11984,7.82085 8.11978,7.82126 8.1197,7.82168 8.11963,7.82209 8.11956,7.8225 8.11949,7.82291 8.11942,7.82332 8.11935,7.82374 4.33308,4.03746 4.33315,4.03705 4.33322,4.03664 4.3333,4.03623 4.33337,4.03582 4.33344,4.03541 4.33351,4.03499 4.33357,4.03458 "/>
     <polygon id="_437649504" class="fil1" points="5.01912,4.44209 8.80539,8.22837 8.81048,8.23392 8.81551,8.23983 8.82048,8.24607 8.82539,8.25265 8.83023,8.25956 8.83502,8.2668 8.83974,8.27434 8.8444,8.2822 8.84901,8.29036 8.85356,8.29882 8.85806,8.30757 8.8625,8.3166 8.86689,8.32591 8.87122,8.33549 5.08495,4.54922 5.08062,4.53964 5.07623,4.53033 5.07179,4.5213 5.06729,4.51255 5.06274,4.50409 5.05813,4.49593 5.05347,4.48807 5.04875,4.48052 5.04396,4.47329 5.03912,4.46638 5.03421,4.4598 5.02924,4.45356 5.02421,4.44765 "/>
     <polygon id="_437649240" class="fil1" points="5.08495,4.54922 8.87122,8.33549 8.8759,8.34626 8.88052,8.35732 8.88508,8.36869 8.88959,8.38035 8.89404,8.39229 8.89843,8.40451 8.90278,8.41699 8.90707,8.42973 8.91131,8.44272 8.9155,8.45594 8.91965,8.46941 8.92375,8.48309 8.92781,8.49699 8.93182,8.5111 8.9358,8.52541 8.93973,8.5399 8.94362,8.55458 8.94748,8.56944 8.9513,8.58446 8.95509,8.59963 8.95884,8.61496 8.96256,8.63043 8.96625,8.64603 8.96991,8.66175 8.97355,8.67759 8.97716,8.69354 8.98074,8.70958 8.9843,8.72572 8.98784,8.74193 8.99136,8.75823 8.99485,8.77458 8.99833,8.791 5.21207,5.00473 5.20859,4.98831 5.20509,4.97196 5.20157,4.95566 5.19803,4.93944 5.19447,4.92331 5.19089,4.90726 5.18728,4.89131 5.18365,4.87548 5.17998,4.85976 5.17629,4.84415 5.17257,4.82869 5.16882,4.81336 5.16503,4.79819 5.16121,4.78317 5.15735,4.76831 5.15346,4.75363 5.14953,4.73913 5.14556,4.72483 5.14154,4.71072 5.13748,4.69682 5.13338,4.68313 5.12924,4.66967 5.12504,4.65644 5.1208,4.64346 5.11651,4.63072 5.11216,4.61824 5.10777,4.60602 5.10332,4.59408 5.09881,4.58242 5.09425,4.57105 5.08963,4.55998 "/>
     <polygon id="_437648832" class="fil1" points="5.21207,5.00473 8.99833,8.791 8.99967,8.79735 9.00101,8.80371 9.00235,8.81007 9.00368,8.81644 9.00501,8.82281 9.00633,8.82919 9.00766,8.83558 9.00899,8.84196 9.01031,8.84835 9.01163,8.85475 9.01295,8.86115 9.01427,8.86755 9.01558,8.87394 9.0169,8.88035 9.01821,8.88675 9.01952,8.89315 9.02083,8.89956 9.02214,8.90595 9.02345,8.91235 9.02476,8.91875 9.02606,8.92515 9.02737,8.93154 9.02868,8.93793 9.02998,8.94431 9.03128,8.9507 9.03259,8.95707 9.03389,8.96344 9.03519,8.96981 9.0365,8.97617 9.0378,8.98252 9.0391,8.98887 9.0404,8.99521 5.25413,5.20894 5.25283,5.2026 5.25153,5.19625 5.25023,5.1899 5.24893,5.18354 5.24762,5.17717 5.24632,5.1708 5.24502,5.16443 5.24371,5.15804 5.24241,5.15166 5.2411,5.14527 5.2398,5.13887 5.23849,5.13248 5.23718,5.12608 5.23587,5.11968 5.23456,5.11328 5.23326,5.10688 5.23194,5.10048 5.23063,5.09407 5.22931,5.08767 5.228,5.08128 5.22668,5.07487 5.22536,5.06848 5.22404,5.06208 5.22272,5.05569 5.22139,5.04931 5.22007,5.04292 5.21874,5.03654 5.21741,5.03017 5.21608,5.0238 5.21474,5.01744 5.21341,5.01108 "/>
     <polygon id="_437649144" class="fil1" points="5.25413,5.20894 9.0404,8.99521 9.04132,8.99966 9.04223,9.00411 9.04315,9.00856 9.04407,9.013 9.04498,9.01743 9.0459,9.02187 9.04681,9.02629 9.04773,9.03071 9.04865,9.03513 9.04957,9.03954 9.05049,9.04394 9.05141,9.04834 9.05232,9.05274 9.05324,9.05712 9.05416,9.0615 9.05508,9.06588 5.26881,5.27961 5.26789,5.27523 5.26698,5.27085 5.26606,5.26646 5.26514,5.26207 5.26422,5.25767 5.2633,5.25327 5.26238,5.24886 5.26146,5.24444 5.26055,5.24002 5.25963,5.23559 5.25872,5.23116 5.2578,5.22672 5.25688,5.22229 5.25596,5.21784 5.25505,5.21339 "/>
     <polygon id="_437649024" class="fil1" points="5.2689,5.28 9.05517,9.06627 9.05515,9.06622 9.05515,9.06617 9.05513,9.06613 9.05513,9.06607 9.05511,9.06602 9.0551,9.06598 9.05509,9.06593 9.05508,9.06588 5.26881,5.27961 5.26883,5.27965 5.26883,5.2797 5.26885,5.27975 5.26886,5.2798 5.26887,5.27985 5.26888,5.2799 5.26889,5.27995 "/>
     <polygon id="_437648880" class="fil1" points="2.99148,3.15609 6.77775,6.94237 6.77775,6.95705 6.77706,6.96383 6.77509,6.97015 6.77197,6.97588 6.76784,6.98088 6.76284,6.98501 6.75711,6.98813 6.75079,6.99011 6.74401,6.9908 6.65027,6.9908 6.64374,6.99063 6.63729,6.99013 6.63093,6.98932 6.62467,6.98819 6.61851,6.98676 6.61248,6.98504 6.60656,6.98303 6.60078,6.98074 6.59514,6.97818 6.58964,6.97535 6.58431,6.97227 6.57913,6.96895 6.57413,6.96539 6.56931,6.96159 6.56468,6.95758 6.56025,6.95335 2.77398,3.16708 2.77841,3.17131 2.78304,3.17532 2.78787,3.17911 2.79287,3.18268 2.79804,3.186 2.80337,3.18908 2.80887,3.19191 2.81451,3.19446 2.8203,3.19676 2.82621,3.19877 2.83224,3.20049 2.8384,3.20192 2.84466,3.20305 2.85102,3.20386 2.85747,3.20436 2.864,3.20452 2.95774,3.20452 2.96452,3.20383 2.97084,3.20186 2.97657,3.19874 2.98157,3.19461 2.9857,3.18961 2.98882,3.18388 2.9908,3.17756 2.99148,3.17078 "/>
     <polygon id="_437649216" class="fil1" points="2.896,3.90432 6.68227,7.69059 6.68857,7.69656 2.9023,3.91029 "/>
     <polygon id="_437649264" class="fil1" points="3.76569,5.28 7.55195,9.06627 6.65894,9.06627 2.87268,5.28 "/>
     <polygon id="_435564520" class="fil1" points="2.87268,5.28 6.65894,9.06627 6.09578,9.06627 2.30951,5.28 "/>
     <polygon id="_435564544" class="fil1" points="2.30951,5.28 6.09578,9.06627 6.09474,9.06627 2.30848,5.28 "/>
     <polygon id="_435564352" class="fil1" points="2.26267,5.27885 6.04894,9.06512 6.04321,9.06488 6.03747,9.06462 6.03174,9.06434 6.026,9.06404 6.02025,9.06372 6.01451,9.06338 6.00876,9.06302 6.00301,9.06263 5.99726,9.06223 5.9915,9.0618 5.98575,9.06135 5.97999,9.06089 5.97423,9.0604 5.96846,9.05989 5.9627,9.05935 5.95693,9.0588 5.95116,9.05822 5.94539,9.05763 5.93961,9.05701 5.93383,9.05637 5.92805,9.05571 5.92227,9.05503 5.91648,9.05433 5.9107,9.0536 5.90491,9.05285 5.89912,9.05209 5.89332,9.0513 5.88752,9.05048 5.88172,9.04965 5.87593,9.0488 5.87012,9.04792 5.86431,9.04702 2.07805,5.26075 2.08385,5.26165 2.08966,5.26253 2.09546,5.26338 2.10126,5.26421 2.10706,5.26503 2.11285,5.26581 2.11864,5.26658 2.12443,5.26733 2.13022,5.26806 2.136,5.26876 2.14178,5.26944 2.14756,5.2701 2.15334,5.27074 2.15912,5.27136 2.16489,5.27195 2.17066,5.27253 2.17643,5.27308 2.1822,5.27361 2.18796,5.27413 2.19372,5.27461 2.19948,5.27508 2.20524,5.27553 2.21099,5.27596 2.21674,5.27636 2.22249,5.27675 2.22824,5.27711 2.23398,5.27745 2.23973,5.27777 2.24547,5.27807 2.2512,5.27835 2.25694,5.27861 "/>
     <polygon id="_435564160" class="fil1" points="2.30848,5.28 6.09474,9.06627 6.0487,9.06627 2.26243,5.28 "/>
     <polygon id="_435564400" class="fil1" points="2.07805,5.26075 5.86431,9.04702 5.85706,9.04587 5.8498,9.04469 5.84253,9.04346 5.83526,9.04221 5.82799,9.04092 5.82071,9.0396 5.81343,9.03824 5.80614,9.03685 5.79885,9.03543 5.79156,9.03396 5.78426,9.03247 5.77696,9.03094 5.76965,9.02938 5.76235,9.02778 5.75503,9.02615 5.74771,9.02448 5.74039,9.02278 5.73307,9.02104 5.72574,9.01927 5.7184,9.01746 5.71106,9.01562 5.70372,9.01374 5.69637,9.01183 5.68902,9.00989 5.68167,9.0079 5.67431,9.00589 5.66695,9.00383 5.65958,9.00174 5.65221,8.99962 5.64484,8.99746 5.63746,8.99527 5.63007,8.99304 1.84381,5.20677 1.85119,5.209 1.85857,5.21119 1.86594,5.21335 1.87331,5.21547 1.88068,5.21756 1.88804,5.21961 1.8954,5.22163 1.90276,5.22361 1.91011,5.22556 1.91745,5.22747 1.9248,5.22935 1.93213,5.23119 1.93947,5.233 1.9468,5.23477 1.95412,5.2365 1.96144,5.23821 1.96876,5.23987 1.97608,5.24151 1.98339,5.24311 1.99069,5.24467 1.99799,5.2462 2.00529,5.24769 2.01259,5.24915 2.01987,5.25058 2.02716,5.25197 2.03444,5.25333 2.04172,5.25465 2.04899,5.25594 2.05626,5.25719 2.06353,5.25841 2.07079,5.2596 "/>
     <polygon id="_435563848" class="fil1" points="1.84381,5.20677 5.63007,8.99304 5.62509,8.99149 5.62018,8.98989 5.61531,8.98824 5.61052,8.98655 5.60578,8.9848 5.60109,8.983 5.59646,8.98115 5.5919,8.97925 5.58739,8.9773 5.58294,8.97529 5.57854,8.97323 5.5742,8.97112 5.56992,8.96896 5.5657,8.96675 5.56152,8.96448 5.55741,8.96216 5.55335,8.95978 5.54935,8.95735 5.5454,8.95487 5.5415,8.95233 5.53767,8.94974 5.53388,8.94709 5.53014,8.94439 5.52646,8.94163 5.52283,8.93881 5.51926,8.93594 1.733,5.14967 1.73657,5.15254 1.7402,5.15536 1.74387,5.15812 1.74761,5.16082 1.7514,5.16347 1.75524,5.16606 1.75913,5.1686 1.76308,5.17108 1.76708,5.17351 1.77114,5.17589 1.77526,5.1782 1.77943,5.18048 1.78365,5.18269 1.78793,5.18485 1.79227,5.18696 1.79667,5.18902 1.80112,5.19102 1.80563,5.19298 1.8102,5.19488 1.81482,5.19673 1.81951,5.19853 1.82425,5.20028 1.82905,5.20197 1.83391,5.20362 1.83883,5.20522 "/>
     <polygon id="_435564496" class="fil1" points="2.9023,3.91029 6.68857,7.69656 6.69484,7.70287 6.70091,7.70935 6.70678,7.71602 6.71245,7.72289 6.71793,7.72994 6.72321,7.73721 6.72831,7.74469 6.73322,7.75238 6.73795,7.7603 6.7425,7.76844 6.74687,7.77682 6.75106,7.78545 6.75508,7.79433 6.75894,7.80346 6.76263,7.81285 6.76615,7.82251 2.97989,4.03624 2.97636,4.02658 2.97267,4.01719 2.96881,4.00806 2.96479,3.99918 2.9606,3.99055 2.95623,3.98217 2.95168,3.97402 2.94695,3.96611 2.94204,3.95841 2.93694,3.95094 2.93166,3.94367 2.92619,3.93661 2.92051,3.92975 2.91464,3.92308 2.90857,3.9166 "/>
     <polygon id="_435564952" class="fil1" points="2.97989,4.03624 6.76615,7.82251 6.7682,7.82836 6.77021,7.8342 6.77219,7.84004 6.77415,7.84587 6.77608,7.85171 6.77798,7.85754 6.77985,7.86336 6.7817,7.86919 6.78351,7.87501 6.7853,7.88082 6.78706,7.88664 6.7888,7.89245 6.7905,7.89826 6.79219,7.90406 6.79383,7.90986 6.79546,7.91566 3.00919,4.12939 3.00757,4.12359 3.00592,4.11779 3.00424,4.11198 3.00253,4.10618 3.0008,4.10037 2.99904,4.09455 2.99724,4.08874 2.99543,4.08292 2.99358,4.07709 2.99171,4.07126 2.98981,4.06544 2.98788,4.0596 2.98593,4.05377 2.98394,4.04793 2.98193,4.04209 "/>
     <polygon id="_435565264" class="fil1" points="3.24459,4.01176 7.03085,7.79803 7.03093,7.79843 7.031,7.79883 7.03107,7.79923 7.03115,7.79963 7.03122,7.80003 7.0313,7.80043 7.03138,7.80083 7.03145,7.80123 3.24519,4.01496 3.24511,4.01456 3.24503,4.01416 3.24496,4.01376 3.24488,4.01336 3.24481,4.01296 3.24474,4.01256 3.24466,4.01216 "/>
     <polygon id="_435565240" class="fil1" points="4.65863,5.28 8.4449,9.06627 7.55195,9.06627 3.76569,5.28 "/>
     <polygon id="_435564616" class="fil1" points="3.05993,3.16861 6.8462,6.95488 6.84212,6.95604 6.83799,6.95691 6.83382,6.95752 6.82962,6.95786 6.82537,6.95793 6.82111,6.95774 6.81681,6.95729 6.81249,6.95659 6.80816,6.95565 6.80381,6.95445 6.79946,6.95302 6.79511,6.95135 6.79076,6.94944 6.78641,6.94731 6.78207,6.94494 6.77775,6.94237 2.99148,3.15609 2.99581,3.15867 3.00014,3.16104 3.00449,3.16317 3.00884,3.16507 3.0132,3.16674 3.01755,3.16818 3.02189,3.16937 3.02622,3.17032 3.03054,3.17102 3.03484,3.17147 3.03911,3.17166 3.04335,3.17159 3.04756,3.17125 3.05172,3.17064 3.05585,3.16976 "/>
     <polygon id="_435565096" class="fil1" points="3.44306,3.696 7.22932,7.48228 7.21681,7.47339 7.20436,7.46439 7.19199,7.4553 7.17972,7.44612 7.16756,7.43688 7.15551,7.42758 7.1436,7.41824 7.13184,7.40887 7.12024,7.39949 7.10882,7.39011 7.09759,7.38074 7.08656,7.37141 7.07574,7.36211 7.06516,7.35287 7.05481,7.34369 7.04473,7.3346 7.03491,7.32561 7.02538,7.31672 7.01615,7.30796 7.00722,7.29934 3.22096,3.51307 3.22988,3.52169 3.23911,3.53045 3.24865,3.53934 3.25846,3.54833 3.26855,3.55742 3.27889,3.56659 3.28948,3.57583 3.30029,3.58513 3.31132,3.59447 3.32256,3.60384 3.33398,3.61322 3.34557,3.6226 3.35733,3.63196 3.36924,3.64131 3.38129,3.65061 3.39345,3.65985 3.40572,3.66902 3.41809,3.67812 3.43054,3.68711 "/>
     <polygon id="_435564712" class="fil1" points="5.2689,5.28 9.05517,9.06627 8.4449,9.06627 4.65863,5.28 "/>
     <polygon id="_435564832" class="fil1" points="4.48194,2.24013 8.26821,6.0264 8.27638,6.03649 8.28436,6.04682 8.29214,6.05739 8.29973,6.06822 8.30712,6.0793 8.31431,6.09063 8.3213,6.10223 8.32808,6.11408 8.33465,6.1262 8.34102,6.13859 8.34717,6.15124 8.35311,6.16417 8.35882,6.17738 8.36432,6.19086 8.3696,6.20463 8.37465,6.21868 8.37948,6.23302 8.38408,6.24765 8.38844,6.26257 8.39258,6.2778 8.39648,6.29331 8.40013,6.30914 8.40355,6.32527 8.40672,6.3417 8.40965,6.35845 8.41233,6.37552 8.41476,6.39289 8.41694,6.41059 8.41886,6.42862 8.42052,6.44697 8.42193,6.46565 8.42307,6.48466 4.6368,2.69839 4.63566,2.67937 4.63426,2.6607 4.63259,2.64235 4.63067,2.62432 4.62849,2.60662 4.62606,2.58924 4.62338,2.57218 4.62046,2.55543 4.61728,2.539 4.61387,2.52287 4.61021,2.50704 4.60631,2.49152 4.60218,2.4763 4.59781,2.46138 4.59321,2.44675 4.58839,2.43241 4.58333,2.41836 4.57806,2.40459 4.57256,2.39111 4.56684,2.3779 4.5609,2.36497 4.55475,2.35231 4.54839,2.33993 4.54181,2.32781 4.53503,2.31596 4.52804,2.30436 4.52085,2.29303 4.51346,2.28195 4.50587,2.27112 4.49809,2.26055 4.49011,2.25022 "/>
     <polygon id="_435566032" class="fil1" points="4.76159,2.74026 8.54786,6.52654 8.55188,6.53117 8.55567,6.53598 8.55923,6.54098 8.56256,6.54616 8.56564,6.5515 8.56846,6.55699 8.57102,6.56263 8.57331,6.56841 8.57532,6.57433 8.57705,6.58037 8.57848,6.58652 8.5796,6.59278 8.58042,6.59914 8.58091,6.60559 8.58108,6.61213 8.58108,6.86332 8.58091,6.86986 8.58042,6.87631 8.5796,6.88267 8.57848,6.88893 8.57705,6.89508 8.57532,6.90112 8.57331,6.90704 8.57102,6.91282 8.56846,6.91846 8.56564,6.92396 8.56256,6.92929 8.55923,6.93446 8.55567,6.93947 8.55188,6.94429 8.54786,6.94892 8.54364,6.95335 8.5392,6.95758 8.53457,6.96159 8.52975,6.96539 8.52475,6.96895 8.51958,6.97227 8.51424,6.97535 8.50875,6.97818 8.50311,6.98074 8.49732,6.98303 8.49141,6.98504 8.48537,6.98676 8.47922,6.98819 8.47296,6.98932 8.46659,6.99013 8.46015,6.99063 8.45361,6.9908 8.35987,6.9908 8.35309,6.99011 8.34677,6.98813 8.34104,6.98501 8.33604,6.98088 4.54978,3.19461 4.55478,3.19874 4.5605,3.20186 4.56683,3.20383 4.57361,3.20452 4.66734,3.20452 4.67388,3.20436 4.68033,3.20386 4.68669,3.20305 4.69295,3.20192 4.6991,3.20049 4.70514,3.19877 4.71106,3.19676 4.71684,3.19446 4.72248,3.19191 4.72797,3.18908 4.73331,3.186 4.73848,3.18268 4.74348,3.17911 4.7483,3.17532 4.75293,3.17131 4.75737,3.16708 4.76159,3.16265 4.76561,3.15802 4.7694,3.1532 4.77296,3.14819 4.77629,3.14302 4.77937,3.13769 4.78219,3.13219 4.78475,3.12655 4.78704,3.12076 4.78906,3.11485 4.79078,3.10881 4.79221,3.10266 4.79333,3.0964 4.79415,3.09004 4.79465,3.08359 4.79481,3.07705 4.79481,2.82585 4.79465,2.81932 4.79415,2.81287 4.79333,2.80651 4.79221,2.80025 4.79078,2.79409 4.78906,2.78806 4.78704,2.78214 4.78475,2.77636 4.78219,2.77072 4.77937,2.76522 4.77629,2.75989 4.77296,2.75471 4.7694,2.74971 4.76561,2.74489 "/>
     <polygon id="_435565528" class="fil1" points="4.29904,1.55418 8.08531,5.34045 8.08522,5.3429 8.08284,5.34654 8.0784,5.35129 8.07211,5.35703 8.06419,5.36366 8.05486,5.37107 8.04433,5.37916 8.03282,5.38782 8.02056,5.39695 8.00774,5.40644 7.99461,5.41618 7.98136,5.42607 7.96822,5.43601 7.95542,5.44588 7.94315,5.45559 7.93165,5.46503 7.92113,5.47409 7.91181,5.48267 7.90389,5.49065 7.89762,5.49794 7.89319,5.50444 7.89083,5.51003 7.89075,5.51461 7.89318,5.51807 4.10691,1.7318 4.10448,1.72833 4.10456,1.72376 4.10692,1.71817 4.11135,1.71167 4.11763,1.70438 4.12554,1.69639 4.13486,1.68781 4.14539,1.67876 4.15689,1.66932 4.16915,1.65961 4.18196,1.64974 4.19509,1.6398 4.20834,1.62991 4.22148,1.62017 4.23429,1.61068 4.24656,1.60155 4.25806,1.59289 4.26859,1.5848 4.27793,1.57739 4.28584,1.57076 4.29213,1.56502 4.29657,1.56027 4.29895,1.55663 "/>
     <polygon id="_435565816" class="fil1" points="4.33834,1.91131 8.12461,5.69759 8.12664,5.70635 8.12902,5.71504 8.13171,5.72366 8.13471,5.73225 8.138,5.74082 8.14155,5.74938 8.14535,5.75795 8.14939,5.76655 8.15363,5.77519 8.15807,5.78391 8.1627,5.79269 8.16747,5.80158 8.17239,5.81058 8.17743,5.81972 8.18257,5.829 8.1878,5.83845 8.1931,5.84809 8.19844,5.85792 8.20382,5.86798 8.20921,5.87826 8.21459,5.88881 8.21995,5.89962 8.22527,5.91072 8.23052,5.92213 8.2357,5.93385 8.24078,5.94592 8.24575,5.95834 8.25058,5.97114 8.25526,5.98432 8.25977,5.99792 8.26409,6.01194 8.26821,6.0264 4.48194,2.24013 4.47783,2.22567 4.4735,2.21165 4.46899,2.19805 4.46431,2.18487 4.45948,2.17207 4.45452,2.15965 4.44943,2.14758 4.44426,2.13585 4.439,2.12445 4.43368,2.11335 4.42832,2.10254 4.42294,2.09199 4.41755,2.0817 4.41218,2.07165 4.40683,2.06181 4.40154,2.05218 4.39631,2.04273 4.39116,2.03344 4.38612,2.02431 4.3812,2.01531 4.37643,2.00642 4.37181,1.99763 4.36737,1.98892 4.36312,1.98028 4.35908,1.97168 4.35528,1.96311 4.35173,1.95455 4.34844,1.94598 4.34544,1.93739 4.34275,1.92876 4.34037,1.92007 "/>
     <polygon id="_435566104" class="fil1" points="4.55196,1.55188 8.33822,5.33815 8.33948,5.34097 8.33978,5.34436 8.33916,5.3483 8.33767,5.35278 8.33537,5.35777 8.33231,5.36324 8.32852,5.36919 8.32407,5.37557 8.319,5.38239 8.31336,5.38961 8.3072,5.3972 8.30057,5.40516 8.29351,5.41345 8.28608,5.42206 8.27833,5.43096 8.2703,5.44015 8.26205,5.44957 8.25362,5.45923 8.24506,5.4691 8.23643,5.47915 8.22776,5.48937 8.21912,5.49974 8.21055,5.51022 8.20209,5.52081 8.1938,5.53147 8.18573,5.54219 8.17793,5.55295 8.17044,5.56372 8.16331,5.57449 4.37705,1.78822 4.38417,1.77745 4.39166,1.76668 4.39946,1.75592 4.40754,1.7452 4.41582,1.73454 4.42428,1.72395 4.43285,1.71346 4.4415,1.7031 4.45016,1.69288 4.4588,1.68283 4.46735,1.67296 4.47578,1.6633 4.48404,1.65387 4.49206,1.64469 4.49981,1.63579 4.50724,1.62718 4.5143,1.61889 4.52093,1.61093 4.52709,1.60333 4.53274,1.59612 4.53781,1.5893 4.54226,1.58292 4.54604,1.57697 4.54911,1.5715 4.55141,1.56651 4.55289,1.56203 4.55351,1.55809 4.55322,1.5547 "/>
     <polygon id="_435565408" class="fil1" points="4.48526,1.75457 8.27152,5.54085 8.27281,5.54266 8.27331,5.54485 8.27306,5.54739 8.2721,5.55027 8.27046,5.55348 8.26818,5.55701 8.2653,5.56084 8.26185,5.56496 8.25787,5.56937 8.2534,5.57404 8.24848,5.57895 8.24314,5.58411 8.23741,5.5895 8.23135,5.59511 8.22498,5.60091 8.21834,5.60691 8.21146,5.61307 8.2044,5.61941 8.19717,5.62589 8.18982,5.63252 8.18239,5.63927 8.17491,5.64613 8.16742,5.65309 8.15996,5.66014 8.15256,5.66727 8.14526,5.67445 8.1381,5.68169 8.13111,5.68896 8.12434,5.69625 4.33807,1.90998 4.34485,1.90269 4.35183,1.89541 4.35899,1.88818 4.36629,1.881 4.37369,1.87387 4.38115,1.86682 4.38864,1.85986 4.39612,1.853 4.40356,1.84625 4.4109,1.83962 4.41813,1.83314 4.4252,1.8268 4.43207,1.82063 4.43871,1.81464 4.44508,1.80883 4.45115,1.80323 4.45687,1.79784 4.46221,1.79268 4.46713,1.78776 4.4716,1.78309 4.47558,1.77869 4.47903,1.77457 4.48191,1.77074 4.48419,1.76721 4.48583,1.764 4.4868,1.76111 4.48705,1.75857 4.48655,1.75639 "/>
     <polygon id="_435565552" class="fil1" points="4.33807,1.90998 8.12434,5.69625 8.12437,5.69642 8.12441,5.69659 8.12444,5.69675 8.12447,5.69692 8.1245,5.69709 8.12454,5.69725 8.12457,5.69742 8.12461,5.69759 4.33834,1.91131 4.33831,1.91115 4.33827,1.91098 4.33824,1.91081 4.3382,1.91065 4.33817,1.91048 4.33814,1.91031 4.33811,1.91015 "/>
    </g>
    <path id="_435561808" class="fil1" d="M5.26881 5.27961c2.75591e-005,0.000133858 5.51181e-005,0.00026378 8.26772e-005,0.000393701 -2.75591e-005,-0.000129921 -5.51181e-005,-0.00026378 -8.26772e-005,-0.000393701zm-0.0149685 -0.0720591c-0.0149488,-0.0722913 -0.0353543,-0.171449 -0.0416575,-0.202224 3.93701e-006,1.9685e-005 7.87402e-006,3.54331e-005 1.1811e-005,5.51181e-005 0.0141457,0.067 0.0278858,0.135217 0.0416339,0.20211 3.93701e-006,1.9685e-005 7.87402e-006,3.93701e-005 1.1811e-005,5.90551e-005zm0.0147362 0.0709606c-0.00279921,-0.0133189 -0.00811024,-0.0389213 -0.0144331,-0.0694961 0.00466929,0.0227244 0.00934646,0.0452953 0.0140354,0.0676102 0.000133858,0.000629921 0.000267717,0.00125591 0.000397638,0.00188583zm-0.93024 -3.36719c0.0197913,0.0939134 0.100854,0.172122 0.143602,0.328815 0.0881417,0.106299 0.144087,0.253693 0.154854,0.458256l0.0305433 0c0.0701102,0 0.127469,0.0573583 0.127469,0.127469l0 0.251197c0,0.0701102 -0.0573583,0.127472 -0.127469,0.127472l-0.0937362 0c-0.0185591,0 -0.0337402,-0.015185 -0.0337402,-0.0337441l0 -0.00605906c-0.0178976,0.00753937 -0.0358543,0.00918898 -0.0524882,0.0037126 -0.00511811,-0.00168504 -0.00993307,-0.00398819 -0.0144409,-0.00685039 -0.0295039,0.13685 -0.0669764,0.237772 -0.084622,0.263752 -0.0416024,0.0612795 -0.166248,0.176508 -0.300047,0.270677l0 0.13222 0 0.0980039c0.0713307,0.031378 0.137118,0.0611142 0.197846,0.0892795 0.000204724,-0.00107087 0.000405512,-0.00214567 0.000602362,-0.00322047 0.0159843,0.0073937 0.031626,0.014685 0.0469291,0.021874 -0.000185039,0.00109843 -0.000374016,0.00219685 -0.000562992,0.00329528 0.45798,0.21561 0.60824,0.334957 0.675642,0.394591 0.0280709,0.0248386 0.0532441,0.0653504 0.0762283,0.117165 0.0502323,0.113126 0.0900827,0.280134 0.127114,0.455508 0.0142992,0.0676969 0.0281772,0.136638 0.0420669,0.204209 0.00488583,0.0237638 0.00977165,0.0473583 0.0146811,0.0706693 2.75591e-005,0.000133858 5.51181e-005,0.00026378 8.26772e-005,0.000393701l-0.610264 0 -0.892949 0 -0.893008 0 -0.563169 -3.93701e-006 -0.0010315 0 -0.0460472 3.93701e-006c8.26772e-005,-0.000385827 0.000161417,-0.000767717 0.000244094,-0.00115354 -0.0611417,-0.00241732 -0.122681,-0.00839764 -0.184626,-0.0180945 -0.0773937,-0.0121142 -0.155465,-0.0300118 -0.23424,-0.0539843 -0.0534291,-0.0162559 -0.0966181,-0.0409252 -0.131169,-0.0755157 -0.0344488,-0.0344882 -0.0590118,-0.0775551 -0.075311,-0.130705 -0.0471969,-0.153906 -0.0764803,-0.310445 -0.0793346,-0.470846 -0.00286614,-0.161091 0.0209724,-0.325252 0.0801063,-0.493461 0.018374,-0.0522598 0.0435827,-0.0927795 0.0775866,-0.125949 0.0331654,-0.0323465 0.0733425,-0.0562362 0.122697,-0.0761417 0.0781024,-0.0315079 0.156421,-0.0535394 0.234913,-0.0673661 0.0775197,-0.0136575 0.156146,-0.0193425 0.235697,-0.0182913 0.0795551,-0.00105118 0.158181,0.00463386 0.235697,0.0182913 0.0784961,0.0138268 0.156815,0.0358583 0.234917,0.0673661 0.0493543,0.0199055 0.0895276,0.0437953 0.122693,0.0761417 0.0340039,0.0331693 0.0592126,0.073689 0.0775866,0.125949 0.0109646,0.031185 0.0207126,0.0622323 0.0293071,0.0931496 0.056437,-0.028689 0.119197,-0.0594606 0.189043,-0.092437 -0.000188976,-0.00108661 -0.000374016,-0.00217717 -0.000555118,-0.00326772 0.0152992,-0.00720866 0.030937,-0.0145197 0.0469055,-0.0219291 0.00019685,0.00107087 0.000393701,0.0021378 0.000598425,0.00320079 0.0607795,-0.0282638 0.126571,-0.0580669 0.19787,-0.0894882l0 -0.0972205 0 -0.132244c-0.133803,-0.0941732 -0.258437,-0.209398 -0.300028,-0.270669 -0.0173425,-0.0255315 -0.0538386,-0.123449 -0.0830984,-0.256724 -0.0216181,0.00690551 -0.0454449,0.00183071 -0.0684449,-0.0125157l0 0.014685c0,0.0185591 -0.015185,0.0337441 -0.0337402,0.0337441l-0.0937402 0c-0.0701063,0 -0.127465,-0.0573622 -0.127465,-0.127472l0 -0.251197c0,-0.0701102 0.0573583,-0.127469 0.127465,-0.127469l0.0305433 0c0.00790551,-0.150236 0.040185,-0.269634 0.091685,-0.364567 -0.0124606,-0.187433 0.0415709,-0.423756 0.378283,-0.596492 0.050248,-0.0095748 -0.127287,0.118228 -0.0737362,0.0981772 0.151642,-0.0446457 0.274035,-0.166106 0.380972,-0.181106 0.0300787,-0.0102992 -0.141197,0.137453 -0.0485276,0.106957 0.156787,-0.0700472 0.27572,-0.16472 0.387484,-0.167732 0.0329606,-0.00179921 -0.248165,0.167213 -0.201091,0.151362 0.247252,-0.0832559 0.362028,-0.172878 0.48189,-0.191654 0.0699567,-0.010937 -0.361138,0.23772 -0.105319,0.169894 0.208236,-0.055185 0.285677,-0.184996 0.35572,-0.176126 0.0534961,0.00676378 -0.0909843,0.126413 -0.164862,0.241118 0.040878,-0.0229488 0.0707283,-0.0395906 0.099248,-0.0367598 0.046248,0.00459055 -0.0672362,0.0806339 -0.13822,0.158524 8.26772e-005,0.000444882 0.000173228,0.000889764 0.000267717,0.00133465z"/>
   </g>
  </g>
  <path class="fil2" d="M3.41333 0c1.88513,0 3.41333,1.5282 3.41333,3.41333 0,1.88513 -1.5282,3.41333 -3.41333,3.41333 -1.88513,0 -3.41333,-1.5282 -3.41333,-3.41333 0,-1.88513 1.5282,-3.41333 3.41333,-3.41333z"/>
  <path class="fil3" d="M3.46513 3.91576c-0.664433,0.291287 -0.863724,0.446579 -0.942504,0.516295 -0.121413,0.107437 -0.188567,0.507913 -0.260197,0.847941l1.50326 0 1.50321 0c-0.0716063,-0.340028 -0.138768,-0.74052 -0.260173,-0.847941 -0.0787874,-0.0697165 -0.270803,-0.221016 -0.935213,-0.512303l-0.608382 -0.00399213z"/>
  <path class="fil4" d="M3.46513 3.91576c-0.0957598,0.0419803 -0.181803,0.0811181 -0.259272,0.117602 0.0474094,0.282969 0.280004,0.497799 0.559807,0.497799 0.279638,0 0.512134,-0.214591 0.559724,-0.497319 -0.0753898,-0.0354016 -0.159012,-0.073378 -0.251878,-0.114091l-0.608382 -0.00399213z"/>
  <path class="fil5" d="M3.24459 4.01176c-0.0159685,0.00741339 -0.0316063,0.0147205 -0.0469055,0.0219291 0.0481024,0.287118 0.28411,0.505106 0.568024,0.505106 0.283744,0 0.51965,-0.21774 0.567941,-0.504618 -0.0153031,-0.00719291 -0.0309449,-0.0144803 -0.0469291,-0.0218819 -0.047878,0.259453 -0.262933,0.455205 -0.521016,0.455205 -0.258264,0 -0.473433,-0.196024 -0.521114,-0.45574z"/>
  <path class="fil4" d="M4.08827 3.33514l0 0.7365c-0.0902402,0.113382 -0.208295,0.182441 -0.322583,0.187819 -0.121835,0.00574016 -0.239697,-0.059815 -0.322634,-0.187819l0 -0.7365c0,-0.397673 0.645217,-0.397673 0.645217,0z"/>
  <path class="fil6" d="M4.08827 3.33514l0 0.493094c-0.122063,0.0889843 -0.239756,0.138839 -0.322583,0.138839 -0.0828583,0 -0.200571,-0.0498543 -0.322634,-0.138823l0 -0.49311c0,-0.397673 0.645217,-0.397673 0.645217,0z"/>
  <path class="fil7" d="M3.76569 2.01287c-1.08277,0 -0.69339,1.30833 -0.622657,1.41247 0.0779567,0.114846 0.447689,0.419264 0.622657,0.419264 0.174917,0 0.54465,-0.304402 0.62263,-0.419264 0.0707283,-0.10415 0.460114,-1.41247 -0.62263,-1.41247z"/>
  <path class="fil8" d="M3.03285 2.58877c-0.0265709,-0.146626 -0.200484,-0.578453 0.331661,-0.851445 0.050248,-0.0095748 -0.127287,0.118228 -0.0737362,0.0981772 0.151642,-0.0446496 0.274035,-0.166106 0.380972,-0.181106 0.0300748,-0.0102992 -0.141197,0.137453 -0.0485276,0.106957 0.156787,-0.0700472 0.27572,-0.16472 0.387484,-0.167732 0.0329606,-0.00179921 -0.248165,0.167209 -0.201087,0.151362 0.247248,-0.0832598 0.362024,-0.172878 0.481886,-0.191654 0.0699528,-0.010937 -0.361138,0.23772 -0.105319,0.169894 0.208236,-0.055185 0.285681,-0.184996 0.35572,-0.17613 0.0740039,0.0093622 -0.23085,0.23474 -0.203571,0.36422 0.0309016,0.146602 0.21111,0.254941 0.161791,0.683315 -0.0754331,-0.22222 -0.298512,-0.339035 -0.533402,-0.302823 -0.373673,0.0460866 -0.75085,-0.203299 -0.933874,0.296965z"/>
  <path class="fil9" d="M3.06387 2.51212c-0.0246142,-0.106563 -0.171303,-0.424008 0.321677,-0.622409 0.0465512,-0.00695669 -0.117917,0.0859252 -0.0683071,0.0713504 0.14048,-0.0324449 0.25387,-0.12072 0.352937,-0.131622 0.0278622,-0.00748425 -0.130807,0.0998976 -0.0449606,0.0777362 0.145252,-0.0509094 0.255429,-0.119713 0.358969,-0.121902 0.0305354,-0.00131102 -0.229902,0.12152 -0.186287,0.11 0.229055,-0.0605079 0.335382,-0.125642 0.446421,-0.139283 0.0648071,-0.00794882 -0.334559,0.172768 -0.0975669,0.123472 0.192909,-0.0401063 0.264654,-0.134449 0.329539,-0.128004 0.0685591,0.00680315 -0.213858,0.170598 -0.188587,0.264701 0.0286299,0.106547 0.224429,0.18889 0.178736,0.50022 -0.0698819,-0.161504 -0.305394,-0.250008 -0.523,-0.223689 -0.346169,0.0334921 -0.71002,-0.144146 -0.879571,0.219429z"/>
  <path class="fil7" d="M2.94331 2.81257c0.0568031,-0.0187008 0.12911,0.0457795 0.161465,0.144051 0.0323819,0.0982638 0.0125551,0.193094 -0.0442992,0.211803 -0.056811,0.0187205 -0.129118,-0.0457638 -0.161469,-0.144028 -0.0323543,-0.0982717 -0.0125276,-0.193094 0.0443031,-0.211827z"/>
  <path class="fil7" d="M4.60456 2.81259c-0.0568346,-0.0187165 -0.12911,0.0457638 -0.161492,0.144035 -0.0323543,0.0982638 -0.0125276,0.193094 0.0443071,0.211803 0.0568228,0.0187205 0.129138,-0.0457756 0.161488,-0.144028 0.0323543,-0.0982717 0.0125197,-0.19311 -0.0443031,-0.211811z"/>
  <path class="fil5" d="M2.44637 4.54922c-0.0764567,0.17224 -0.128882,0.469354 -0.183937,0.73078l0.610248 0c-0.0136496,-0.4265 -0.0144213,-0.653358 -0.426311,-0.73078z"/>
  <path class="fil5" d="M5.08495 4.54922c0.0764567,0.17224 0.128886,0.469354 0.183945,0.73078l-0.61026 0c0.0136496,-0.4265 0.0144252,-0.653358 0.426315,-0.73078z"/>
  <path class="fil4" d="M5.21207 5.00473c0.00889764,0.0434646 0.0479252,0.232988 0.0568307,0.275272l-0.61026 0c0.00145669,-0.0452126 0.00277953,-0.0881496 0.0044252,-0.128933l0.549004 -0.146339z"/>
  <path class="fil4" d="M2.32728 4.96711c-0.00887402,0.0434567 -0.0559331,0.27061 -0.0648504,0.312894l0.610248 0c-0.00144488,-0.0452126 -0.00274409,-0.0881496 -0.00439764,-0.128933l-0.541 -0.183961z"/>
  <path class="fil10" d="M3.57547 2.11069c0.00362992,0.00109843 0.00240551,0.000712598 1.1811e-005,-2.75591e-005l-1.1811e-005 2.75591e-005z"/>
  <path class="fil2" d="M3.25443 4.35521c-0.00111417,-0.000102362 -0.00223228,-0.000244094 -0.00335039,-0.000366142"/>
  <path class="fil11" d="M2.94655 2.7088c0.0126969,-0.270465 0.108626,-0.432772 0.25387,-0.530063 0.148114,-0.0992165 0.3485,-0.133102 0.565256,-0.145024l-0.00246457 -0.0580315c-0.224476,0.0123425 -0.432906,0.0480472 -0.589906,0.153213 -0.159866,0.107087 -0.26537,0.283969 -0.279126,0.576945l0.0523701 0.00296063z"/>
  <path class="fil11" d="M4.5848 2.7088c-0.0126969,-0.270465 -0.108626,-0.432772 -0.25387,-0.530063 -0.148114,-0.0992165 -0.348504,-0.133102 -0.56526,-0.145024l0.00246457 -0.0580315c0.224476,0.0123425 0.432909,0.0480472 0.589906,0.153213 0.15987,0.107087 0.265374,0.283969 0.279126,0.576945l-0.0523661 0.00296063z"/>
  <path class="fil12" d="M2.864 2.69839l0.0937402 0c0.0185551,0 0.0337402,0.0151811 0.0337402,0.0337441l0 0.43865c0,0.0185591 -0.015185,0.0337441 -0.0337402,0.0337441l-0.0937402 0c-0.0701063,0 -0.127465,-0.0573622 -0.127465,-0.127472l0 -0.251197c0,-0.0701102 0.0573583,-0.127469 0.127465,-0.127469z"/>
  <path class="fil12" d="M4.66734 2.69839l-0.0937362 0c-0.0185591,0 -0.0337402,0.0151811 -0.0337402,0.0337441l0 0.43865c0,0.0185591 0.0151811,0.0337441 0.0337402,0.0337441l0.0937362 0c0.0701102,0 0.127469,-0.0573622 0.127469,-0.127472l0 -0.251197c0,-0.0701102 -0.0573583,-0.127469 -0.127469,-0.127469z"/>
  <path class="fil13" d="M1.75013 4.06967c-0.0550157,0.156496 -0.0772008,0.308929 -0.0745433,0.458276 0.00266929,0.150051 0.0304803,0.297854 0.0753386,0.444126 0.0101339,0.0330551 0.0244094,0.0588386 0.0437244,0.0781732 0.0192087,0.0192323 0.0447717,0.0334213 0.0775906,0.0434055 0.0745118,0.0226732 0.148209,0.0395827 0.221118,0.0509921 0.0726693,0.011374 0.144539,0.017315 0.21563,0.0180906 0.0710945,-0.000775591 0.142961,-0.00671654 0.215634,-0.0180906 0.0729016,-0.0114094 0.146606,-0.0283189 0.221118,-0.0509921 0.032815,-0.00998425 0.058378,-0.0241732 0.0775906,-0.0434055 0.019315,-0.0193346 0.0335866,-0.0451181 0.0437244,-0.0781732 0.0448543,-0.146268 0.0726693,-0.294075 0.0753386,-0.444126 0.00265748,-0.14935 -0.0195276,-0.30178 -0.0745472,-0.458276 -0.0115354,-0.032811 -0.0264843,-0.0573976 -0.0460433,-0.0764764 -0.0204213,-0.0199213 -0.0472992,-0.0354921 -0.0816181,-0.0493346 -0.0703425,-0.028374 -0.141496,-0.0483268 -0.213346,-0.0609843 -0.0725866,-0.0127874 -0.144929,-0.0181024 -0.217055,-0.0171102l-0.00159055 0c-0.072122,-0.000992126 -0.144465,0.00432283 -0.217051,0.0171102 -0.0718543,0.0126575 -0.143008,0.0326102 -0.21335,0.0609843 -0.0343189,0.0138425 -0.0611969,0.0294134 -0.0816142,0.0493346 -0.0195591,0.0190787 -0.0345118,0.0436654 -0.0460472,0.0764764z"/>
  <path class="fil14" d="M2.15317 4.78627l0 0zm0 -0.544161l1.1811e-005 0.544161c0,0.0158031 0.00602362,0.0316102 0.0180866,0.0436654 0.0241142,0.0241181 0.0632165,0.0241181 0.0873307,0l0.272079 -0.272079c0.0241142,-0.0241181 0.0241142,-0.0632205 0,-0.0873346l-0.271697 -0.271701c-0.0112047,-0.0114016 -0.0267992,-0.0184724 -0.0440472,-0.0184724 -0.0341102,0 -0.0617638,0.0276496 -0.0617638,0.0617598z"/>
  <path class="fil15" d="M1.83838 3.83415c0.0781063,-0.0315039 0.156425,-0.0535394 0.234917,-0.0673661 0.0775197,-0.0136575 0.156146,-0.0193425 0.235697,-0.0182913 0.0795551,-0.00105118 0.158181,0.00463386 0.235701,0.0182913 0.0784921,0.0138268 0.156811,0.0358622 0.234913,0.0673661 0.0493504,0.0199055 0.0895276,0.0437953 0.122693,0.0761417 0.0340039,0.0331693 0.0592126,0.073689 0.0775866,0.125949 0.0591339,0.168209 0.0829764,0.33237 0.0801063,0.493461 -0.00285433,0.160402 -0.0321339,0.316941 -0.0793307,0.470846 -0.0162992,0.0531496 -0.0408661,0.0962126 -0.075315,0.130705 -0.0345551,0.0345906 -0.0777362,0.0592598 -0.131169,0.0755157 -0.0787717,0.0239724 -0.156846,0.0418701 -0.234236,0.0539843 -0.077437,0.012122 -0.154244,0.018437 -0.230429,0.0192441l-0.00103543 0c-0.076189,-0.000807087 -0.152992,-0.00712205 -0.230429,-0.0192441 -0.0773937,-0.0121142 -0.155465,-0.0300118 -0.23424,-0.0539843 -0.0534291,-0.0162559 -0.0966181,-0.0409252 -0.131165,-0.0755157 -0.0344528,-0.0344921 -0.0590157,-0.0775551 -0.075315,-0.130705 -0.0472008,-0.153906 -0.0764803,-0.310445 -0.0793346,-0.470846 -0.00286614,-0.161091 0.0209724,-0.325252 0.0801102,-0.493461 0.0183701,-0.0522598 0.0435787,-0.0927795 0.0775827,-0.125949 0.0331654,-0.0323465 0.0733425,-0.0562362 0.122693,-0.0761417zm0.257669 0.0629331c-0.0702362,0.012374 -0.139787,0.031874 -0.208547,0.0596102 -0.0335472,0.0135315 -0.0598228,0.028752 -0.0797795,0.0482244 -0.0191181,0.0186457 -0.0337323,0.0426811 -0.0450079,0.0747559 -0.0537795,0.152972 -0.0754646,0.301976 -0.0728701,0.447961 0.00261024,0.146677 0.0297953,0.291154 0.0736457,0.434134 0.00990551,0.032311 0.0238583,0.0575118 0.0427402,0.0764134 0.0187756,0.0187992 0.0437638,0.0326693 0.0758425,0.0424291 0.0728346,0.0221614 0.144874,0.038689 0.216142,0.0498425 0.0710354,0.011122 0.141287,0.0169252 0.21078,0.017685 0.0694921,-0.000759843 0.139744,-0.00656299 0.21078,-0.017685 0.0712638,-0.0111535 0.143307,-0.0276811 0.216142,-0.0498425 0.0320787,-0.00975984 0.0570669,-0.0236299 0.0758465,-0.0424291 0.018878,-0.0189016 0.0328307,-0.0441024 0.0427402,-0.0764134 0.0438465,-0.142976 0.0710315,-0.287457 0.0736417,-0.434134 0.00259843,-0.145988 -0.0190866,-0.294988 -0.0728661,-0.447961 -0.0112756,-0.0320748 -0.0258898,-0.0561102 -0.0450079,-0.0747559 -0.0199646,-0.0194724 -0.0462323,-0.0346929 -0.0797795,-0.0482244 -0.0687638,-0.0277362 -0.138315,-0.0472402 -0.208547,-0.0596102 -0.0709528,-0.0125 -0.141669,-0.0176969 -0.212169,-0.0167283l-0.00155512 0c-0.0705,-0.000968504 -0.141217,0.00422441 -0.212169,0.0167283z"/>
  <path class="fil16" d="M2.30899 4.01292c0.276843,0 0.501268,0.224429 0.501268,0.501272 0,0.276843 -0.224425,0.501268 -0.501268,0.501268 -0.276843,0 -0.501268,-0.224425 -0.501268,-0.501268 0,-0.276843 0.224425,-0.501272 0.501268,-0.501272zm-0.0500157 0.185906l0.271697 0.271701c0.0241142,0.0241142 0.0241142,0.0632165 0,0.0873346l-0.272079 0.272079c-0.0241142,0.0241181 -0.0632165,0.0241181 -0.0873307,0 -0.012063,-0.0120551 -0.0180866,-0.0278622 -0.0180866,-0.0436654l-1.1811e-005 0 0 -0.544161c0,-0.0341102 0.0276535,-0.0617598 0.0617638,-0.0617598 0.017248,0 0.0328425,0.00707087 0.0440472,0.0184724z"/>
  <path class="fil17" d="M3.48063 3.30704c0.189291,0.0677441 0.409008,0.0567598 0.570087,0 -0.052563,0.242177 -0.469571,0.248055 -0.570087,0z"/>
 </g>
</svg>
